<mxfile host="app.diagrams.net" agent="Mozilla/5.0 (Windows NT 10.0; Win64; x64) AppleWebKit/537.36 (KHTML, like Gecko) Chrome/133.0.0.0 Safari/537.36" version="26.0.16">
  <diagram name="Halaman-1" id="ZUB3IT62KXNVyYTCJgcI">
    <mxGraphModel dx="880" dy="434" grid="1" gridSize="10" guides="1" tooltips="1" connect="1" arrows="1" fold="1" page="1" pageScale="1" pageWidth="827" pageHeight="1169" math="0" shadow="0">
      <root>
        <mxCell id="0" />
        <mxCell id="1" parent="0" />
        <mxCell id="hBM-0KfF6lgRk7k2HPyS-10" style="edgeStyle=orthogonalEdgeStyle;rounded=0;orthogonalLoop=1;jettySize=auto;html=1;exitX=1;exitY=0.5;exitDx=0;exitDy=0;" edge="1" parent="1" source="hBM-0KfF6lgRk7k2HPyS-1" target="hBM-0KfF6lgRk7k2HPyS-9">
          <mxGeometry relative="1" as="geometry" />
        </mxCell>
        <mxCell id="hBM-0KfF6lgRk7k2HPyS-17" style="edgeStyle=orthogonalEdgeStyle;rounded=0;orthogonalLoop=1;jettySize=auto;html=1;exitX=0.5;exitY=1;exitDx=0;exitDy=0;entryX=0;entryY=0.5;entryDx=0;entryDy=0;" edge="1" parent="1" source="hBM-0KfF6lgRk7k2HPyS-1" target="hBM-0KfF6lgRk7k2HPyS-6">
          <mxGeometry relative="1" as="geometry" />
        </mxCell>
        <mxCell id="hBM-0KfF6lgRk7k2HPyS-1" value="Penyidik" style="rounded=0;whiteSpace=wrap;html=1;" vertex="1" parent="1">
          <mxGeometry x="110" y="40" width="120" height="60" as="geometry" />
        </mxCell>
        <mxCell id="hBM-0KfF6lgRk7k2HPyS-14" style="edgeStyle=orthogonalEdgeStyle;rounded=0;orthogonalLoop=1;jettySize=auto;html=1;exitX=0.5;exitY=1;exitDx=0;exitDy=0;entryX=1;entryY=0.5;entryDx=0;entryDy=0;" edge="1" parent="1" source="hBM-0KfF6lgRk7k2HPyS-2" target="hBM-0KfF6lgRk7k2HPyS-7">
          <mxGeometry relative="1" as="geometry">
            <mxPoint x="740" y="170" as="targetPoint" />
          </mxGeometry>
        </mxCell>
        <mxCell id="hBM-0KfF6lgRk7k2HPyS-18" style="edgeStyle=orthogonalEdgeStyle;rounded=0;orthogonalLoop=1;jettySize=auto;html=1;exitX=0.5;exitY=1;exitDx=0;exitDy=0;entryX=1;entryY=0.5;entryDx=0;entryDy=0;" edge="1" parent="1" source="hBM-0KfF6lgRk7k2HPyS-2" target="hBM-0KfF6lgRk7k2HPyS-6">
          <mxGeometry relative="1" as="geometry" />
        </mxCell>
        <mxCell id="hBM-0KfF6lgRk7k2HPyS-22" style="edgeStyle=orthogonalEdgeStyle;rounded=0;orthogonalLoop=1;jettySize=auto;html=1;exitX=0.5;exitY=1;exitDx=0;exitDy=0;entryX=1;entryY=0.5;entryDx=0;entryDy=0;" edge="1" parent="1" source="hBM-0KfF6lgRk7k2HPyS-2" target="hBM-0KfF6lgRk7k2HPyS-8">
          <mxGeometry relative="1" as="geometry" />
        </mxCell>
        <mxCell id="hBM-0KfF6lgRk7k2HPyS-26" style="edgeStyle=orthogonalEdgeStyle;rounded=0;orthogonalLoop=1;jettySize=auto;html=1;exitX=0.5;exitY=1;exitDx=0;exitDy=0;entryX=0;entryY=0.5;entryDx=0;entryDy=0;" edge="1" parent="1" source="hBM-0KfF6lgRk7k2HPyS-2" target="hBM-0KfF6lgRk7k2HPyS-5">
          <mxGeometry relative="1" as="geometry">
            <Array as="points">
              <mxPoint x="740" y="600" />
              <mxPoint x="150" y="600" />
              <mxPoint x="150" y="410" />
            </Array>
          </mxGeometry>
        </mxCell>
        <mxCell id="hBM-0KfF6lgRk7k2HPyS-2" value="Jaksa Penuntut Umum" style="rounded=0;whiteSpace=wrap;html=1;" vertex="1" parent="1">
          <mxGeometry x="680" y="40" width="120" height="60" as="geometry" />
        </mxCell>
        <mxCell id="hBM-0KfF6lgRk7k2HPyS-3" value="Pengadilan Negeri" style="rounded=0;whiteSpace=wrap;html=1;" vertex="1" parent="1">
          <mxGeometry x="370" y="480" width="120" height="60" as="geometry" />
        </mxCell>
        <mxCell id="hBM-0KfF6lgRk7k2HPyS-4" style="edgeStyle=orthogonalEdgeStyle;rounded=0;orthogonalLoop=1;jettySize=auto;html=1;exitX=0;exitY=0.5;exitDx=0;exitDy=0;entryX=0;entryY=0.5;entryDx=0;entryDy=0;" edge="1" parent="1" source="hBM-0KfF6lgRk7k2HPyS-2" target="hBM-0KfF6lgRk7k2HPyS-2">
          <mxGeometry relative="1" as="geometry">
            <Array as="points" />
          </mxGeometry>
        </mxCell>
        <mxCell id="hBM-0KfF6lgRk7k2HPyS-21" value="" style="edgeStyle=orthogonalEdgeStyle;rounded=0;orthogonalLoop=1;jettySize=auto;html=1;" edge="1" parent="1" source="hBM-0KfF6lgRk7k2HPyS-6" target="hBM-0KfF6lgRk7k2HPyS-8">
          <mxGeometry relative="1" as="geometry" />
        </mxCell>
        <mxCell id="hBM-0KfF6lgRk7k2HPyS-6" value="Penandatanganan Berita Acara Serah Terima (BAST)" style="ellipse;whiteSpace=wrap;html=1;" vertex="1" parent="1">
          <mxGeometry x="370" y="250" width="120" height="80" as="geometry" />
        </mxCell>
        <mxCell id="hBM-0KfF6lgRk7k2HPyS-16" value="" style="edgeStyle=orthogonalEdgeStyle;rounded=0;orthogonalLoop=1;jettySize=auto;html=1;" edge="1" parent="1" source="hBM-0KfF6lgRk7k2HPyS-7" target="hBM-0KfF6lgRk7k2HPyS-6">
          <mxGeometry relative="1" as="geometry" />
        </mxCell>
        <mxCell id="hBM-0KfF6lgRk7k2HPyS-7" value="Verifikasi Identitas Tersangka dan Barang Bukti" style="ellipse;whiteSpace=wrap;html=1;" vertex="1" parent="1">
          <mxGeometry x="370" y="130" width="120" height="80" as="geometry" />
        </mxCell>
        <mxCell id="hBM-0KfF6lgRk7k2HPyS-24" value="" style="edgeStyle=orthogonalEdgeStyle;rounded=0;orthogonalLoop=1;jettySize=auto;html=1;" edge="1" parent="1" source="hBM-0KfF6lgRk7k2HPyS-5" target="hBM-0KfF6lgRk7k2HPyS-3">
          <mxGeometry relative="1" as="geometry">
            <Array as="points">
              <mxPoint x="230" y="510" />
            </Array>
          </mxGeometry>
        </mxCell>
        <mxCell id="hBM-0KfF6lgRk7k2HPyS-8" value="Penahanan dan Penitipan Tersangkah" style="ellipse;whiteSpace=wrap;html=1;" vertex="1" parent="1">
          <mxGeometry x="370" y="370" width="120" height="80" as="geometry" />
        </mxCell>
        <mxCell id="hBM-0KfF6lgRk7k2HPyS-12" style="edgeStyle=orthogonalEdgeStyle;rounded=0;orthogonalLoop=1;jettySize=auto;html=1;entryX=0;entryY=0.5;entryDx=0;entryDy=0;" edge="1" parent="1" source="hBM-0KfF6lgRk7k2HPyS-9" target="hBM-0KfF6lgRk7k2HPyS-2">
          <mxGeometry relative="1" as="geometry" />
        </mxCell>
        <mxCell id="hBM-0KfF6lgRk7k2HPyS-9" value="Penerimaan Berkas Perkara Tahap 2" style="ellipse;whiteSpace=wrap;html=1;" vertex="1" parent="1">
          <mxGeometry x="370" y="30" width="120" height="80" as="geometry" />
        </mxCell>
        <mxCell id="hBM-0KfF6lgRk7k2HPyS-11" value="Berkas Perkara" style="text;html=1;align=center;verticalAlign=middle;whiteSpace=wrap;rounded=0;" vertex="1" parent="1">
          <mxGeometry x="260" y="40" width="60" height="30" as="geometry" />
        </mxCell>
        <mxCell id="hBM-0KfF6lgRk7k2HPyS-13" value="Berkas Perkara" style="text;html=1;align=center;verticalAlign=middle;whiteSpace=wrap;rounded=0;" vertex="1" parent="1">
          <mxGeometry x="560" y="40" width="60" height="30" as="geometry" />
        </mxCell>
        <mxCell id="hBM-0KfF6lgRk7k2HPyS-15" value="Berkas Perkara" style="text;html=1;align=center;verticalAlign=middle;whiteSpace=wrap;rounded=0;" vertex="1" parent="1">
          <mxGeometry x="560" y="140" width="60" height="30" as="geometry" />
        </mxCell>
        <mxCell id="hBM-0KfF6lgRk7k2HPyS-19" value="Tanda Tangan" style="text;html=1;align=center;verticalAlign=middle;whiteSpace=wrap;rounded=0;" vertex="1" parent="1">
          <mxGeometry x="560" y="260" width="60" height="30" as="geometry" />
        </mxCell>
        <mxCell id="hBM-0KfF6lgRk7k2HPyS-20" value="Tanda Tangan" style="text;html=1;align=center;verticalAlign=middle;whiteSpace=wrap;rounded=0;" vertex="1" parent="1">
          <mxGeometry x="260" y="260" width="60" height="30" as="geometry" />
        </mxCell>
        <mxCell id="hBM-0KfF6lgRk7k2HPyS-23" value="Keputusan" style="text;html=1;align=center;verticalAlign=middle;whiteSpace=wrap;rounded=0;" vertex="1" parent="1">
          <mxGeometry x="560" y="380" width="60" height="30" as="geometry" />
        </mxCell>
        <mxCell id="hBM-0KfF6lgRk7k2HPyS-25" value="" style="edgeStyle=orthogonalEdgeStyle;rounded=0;orthogonalLoop=1;jettySize=auto;html=1;" edge="1" parent="1" source="hBM-0KfF6lgRk7k2HPyS-8" target="hBM-0KfF6lgRk7k2HPyS-5">
          <mxGeometry relative="1" as="geometry">
            <mxPoint x="370" y="410" as="sourcePoint" />
            <mxPoint x="170" y="410" as="targetPoint" />
          </mxGeometry>
        </mxCell>
        <mxCell id="hBM-0KfF6lgRk7k2HPyS-5" value="Penyusunan Rencana Dakwaan" style="ellipse;whiteSpace=wrap;html=1;" vertex="1" parent="1">
          <mxGeometry x="170" y="370" width="120" height="80" as="geometry" />
        </mxCell>
        <mxCell id="hBM-0KfF6lgRk7k2HPyS-27" value="Rencana Dakwaan" style="text;html=1;align=center;verticalAlign=middle;whiteSpace=wrap;rounded=0;" vertex="1" parent="1">
          <mxGeometry x="490" y="570" width="60" height="30" as="geometry" />
        </mxCell>
      </root>
    </mxGraphModel>
  </diagram>
</mxfile>
